<svg width="512" height="512" fill="none" xmlns="http://www.w3.org/2000/svg"><g clip-path="url(#a)"><path d="M254.664 512c141.385 0 256-114.615 256-256S396.049 0 254.664 0s-256 114.615-256 256 114.615 256 256 256Z" fill="url(#b)"/><path opacity=".2" d="M416 384c0 8.84-7.16 16-16 16H112c-8.84 0-16-7.16-16-16s7.16-16 16-16h288c8.84 0 16 7.16 16 16Z" fill="#000"/><path d="M416 368c0 8.84-7.16 16-16 16H112c-8.84 0-16-7.16-16-16s7.16-16 16-16h288c8.84 0 16 7.16 16 16Z" fill="#E68A3D"/><path d="M184 160h-32c-13.256 0-24 10.744-24 24v168h80V184c0-13.256-10.744-24-24-24Z" fill="#C75C5C"/><path d="M360 128h-32c-13.256 0-24 10.744-24 24v200h80V152c0-13.256-10.744-24-24-24Z" fill="#E0E0D1"/><path d="M208 192h-80v24h80v-24ZM208 296h-80v24h80v-24Z" fill="#E0995E"/><path d="M384 296h-80v24h80v-24ZM384 160h-80v24h80v-24Z" fill="#fff"/><path opacity=".2" d="M320 320V129.472c-9.304 3.304-16 12.096-16 22.528v200h16v-32ZM208 320V184c0-10.432-6.696-19.224-16-22.528V352h16v-32Z" fill="#231F20"/><path d="M280 96h-48c-13.256 0-24 10.744-24 24v232h96V120c0-13.256-10.744-24-24-24Z" fill="#4F5D73"/><path d="M304 128h-96v24h96v-24ZM304 296h-96v24h96v-24Z" fill="#76C2AF"/></g><defs><linearGradient id="b" x1="-1.336" y1="256" x2="510.664" y2="256" gradientUnits="userSpaceOnUse"><stop stop-color="#B993D6"/><stop offset="1" stop-color="#8CA6DB"/></linearGradient><clipPath id="a"><path fill="#fff" d="M0 0h512v512H0z"/></clipPath></defs></svg>